<svg t="1676189250469" class="icon" viewBox="0 0 1024 1024" version="1.1" xmlns="http://www.w3.org/2000/svg" p-id="3302" width="200" height="200"><path d="M299.8044448 74.29688853c129.59288853-65.87733333 291.95377813-67.8115552 421.77422187-1.82044373-4.55111147 5.23377813-13.76711147 15.70133333-18.31822187 20.9351104-121.17333333-51.2-262.25777813-54.84088853-381.61066667 3.52711147-5.46133333-5.68888853-16.384-16.95288853-21.84533333-22.64177814z" fill="#EFA654" p-id="3303"></path><path d="M181.248 103.1964448c5.57511147-58.02666667 85.44711147-74.5244448 118.5564448-28.89955627 5.46133333 5.68888853 16.384 16.95288853 21.84533333 22.64177814-4.096 16.83911147-6.71288853 34.5884448-15.9288896 49.60711146-19.79733333 3.52711147-17.86311147-22.64177813-26.28266666-34.13333333-3.18577813-7.9644448-6.82666667-15.70133333-10.92266667-23.21066667-25.48622187-31.744-60.416 2.95822187-87.2675552 13.99466667z" fill="#B25120" p-id="3304"></path><path d="M321.64977813 96.93866667c119.35288853-58.368 260.43733333-54.72711147 381.61066667-3.52711147 4.43733333 20.13866667 7.9644448 40.50488853 10.80888853 60.87111147 7.05422187-18.432 13.312-37.20533333 21.2764448-55.40977814 59.96088853 34.0195552 106.83733333 84.42311147 154.8515552 132.6648896-89.20177813-26.624-198.656-33.45066667-272.27022186 33.67822187-31.17511147 23.66577813-38.79822187 75.32088853-1.93422294 97.84888853 20.2524448 24.12088853 47.78666667 1.13777813 70.54222294-5.91644373-6.71288853 40.1635552-51.54133333 57.344-66.21866667 94.208-57.79911147 107.40622187-160.88177813 191.03288853-282.28266667 212.1955552-35.15733333 6.71288853-74.752-2.048-106.0408896 18.88711147 22.3004448 22.64177813 39.1395552 49.49333333 57.344 75.32088853-65.08088853-41.1875552-106.95111147-112.98133333-111.616-189.78133333l-20.25244373-1.8204448c-6.59911147 77.36888853 41.7564448 141.99466667 86.016 200.02133333-45.2835552-25.25866667-87.72266667-87.95022187-144.27022293-52.224-44.94222187-100.1244448-65.64977813-217.8844448-26.28266667-323.24266667 10.92266667-11.83288853 26.3964448-18.09066667 40.27733333-25.71377706 82.37511147-35.49866667 183.63733333-35.15733333 261.34755627 12.288 38.6844448 31.63022187 91.9324448-35.27111147 58.70933333-69.74577814-59.6195552-95.0044448-186.25422187-101.1484448-286.60622293-89.77066666 40.50488853-39.59466667 79.75822187-82.26133333 132.77866667-105.35822187 8.4195552 11.4915552 6.48533333 37.6604448 26.28266666 34.13333333 9.216-15.01866667 11.83288853-32.768 15.9288896-49.60711146M138.92266667 397.99466667c-36.864 6.144-75.66222187 38.22933333-71.79377814 77.93777813 23.89333333 32.31288853 62.00888853 57.1164448 103.65155627 52.11022187 42.32533333 1.59288853 101.26222187-33.33688853 79.872-82.37511147-23.552-35.15733333-69.8595552-57.45777813-111.72977813-47.67288853z" fill="#FDE977" p-id="3305"></path><path d="M721.57866667 72.4764448c34.24711147-46.64888853 113.20888853-26.28266667 121.51466666 30.9475552-28.4444448-11.264-60.75733333-44.8284448-90.45333333-17.6355552-4.3235552 3.2995552-12.97066667 9.89866667-17.29422187 13.08444373-7.9644448 18.2044448-14.22222187 36.97777813-21.2764448 55.40977814-2.8444448-20.36622187-6.3715552-40.7324448-10.80888853-60.87111147 4.55111147-5.23377813 13.76711147-15.70133333 18.31822187-20.9351104z" fill="#B25120" p-id="3306"></path><path d="M126.06577813 222.66311147c31.17511147-58.368 87.72266667-98.75911147 142.44977707-133.46133334 4.096 7.50933333 7.73688853 15.24622187 10.92266667 23.21066667-53.0204448 23.09688853-92.27377813 65.7635552-132.77866667 105.35822187-5.12 1.2515552-15.36 3.64088853-20.59377707 4.8924448zM735.34577813 98.87288853c4.3235552-3.18577813 12.97066667-9.78488853 17.29422187-13.08444373 66.7875552 40.50488853 129.024 93.4115552 168.50488853 161.67822187-6.25777813-3.2995552-19.00088853-9.67111147-25.25866666-12.97066667-1.47911147-0.68266667-4.3235552-2.16177813-5.68888854-2.95822187-48.01422187-48.24177813-94.89066667-98.64533333-154.8515552-132.6648896z" fill="#EFA654" p-id="3307"></path><path d="M126.06577813 222.66311147c5.23377813-1.2515552 15.47377813-3.64088853 20.59377707-4.8924448 100.352-11.37777813 226.98666667-5.23377813 286.60622293 89.77066666 33.22311147 34.47466667-20.02488853 101.376-58.70933333 69.74577814-77.71022187-47.44533333-178.9724448-47.78666667-261.34755627-12.288-24.3484448 4.20977813-48.81066667-0.34133333-62.9191104-21.95911147-22.64177813-57.79911147 39.02577813-89.99822187 75.776-120.37688853m47.67288854 7.85066666c-30.26488853 6.3715552-59.392 17.52177813-85.44711147 34.36088854 32.08533333 12.40177813 59.96088853 34.816 45.51111147 72.13511146 57.79911147-7.85066667 116.28088853-6.59911147 174.3075552-4.55111146 40.04977813 1.13777813 71.33866667 50.51733333 111.616 31.28888853 24.3484448-59.50577813-40.04977813-101.26222187-88.064-117.30488853-50.9724448-13.19822187-105.35822187-27.8755552-157.9235552-15.92888854zM617.92711147 265.216c73.61422187-67.12888853 183.0684448-60.30222187 272.27022186-33.67822187 1.36533333 0.7964448 4.20977813 2.2755552 5.68888854 2.95822187 6.25777813 3.2995552 19.00088853 9.67111147 25.25866666 12.97066667 0.68266667 0.34133333 1.93422187 1.13777813 2.6168896 1.59288853 41.7564448 23.7795552 85.33333333 74.752 51.31377707 122.88l-8.76088853 13.19822293c-89.42933333-27.98933333-187.27822187-74.86577813-279.7795552-27.98933333-22.7555552 7.05422187-50.28977813 30.03733333-70.54222294 5.91644373-36.864-22.528-29.24088853-74.18311147 1.93422294-97.84888853m112.52622186-35.72622187c-34.13333333 5.68888853-66.21866667 19.79733333-95.232 36.97777707 38.6844448 4.8924448 60.416 26.624 54.4995552 66.1048896 86.69866667-13.65333333 179.54133333-14.44977813 254.29333334 38.1155552 49.03822187-3.98222187 35.38488853-71.22488853 3.41333333-89.65688853-62.464-42.55288853-142.44977813-60.07466667-216.97422187-51.54133334z" fill="#1F1F1F" p-id="3308"></path><path d="M173.73866667 230.51377813c52.56533333-11.94666667 106.95111147 2.73066667 157.9235552 15.92888854 48.01422187 16.04266667 112.4124448 57.79911147 88.064 117.30488853-40.27733333 19.2284448-71.56622187-30.15111147-111.616-31.28888853-58.02666667-2.048-116.5084448-3.2995552-174.3075552 4.55111146 14.44977813-37.31911147-13.42577813-59.73333333-45.51111147-72.13511146 26.05511147-16.83911147 55.18222187-27.98933333 85.44711147-34.36088854zM730.45333333 229.48977813c74.5244448-8.53333333 154.51022187 8.9884448 216.97422187 51.54133334 31.9715552 18.432 45.62488853 85.67466667-3.41333333 89.65688853-74.752-52.56533333-167.59466667-51.76888853-254.29333334-38.1155552 5.9164448-39.48088853-15.81511147-61.2124448-54.4995552-66.1048896 29.01333333-17.1804448 61.09866667-31.28888853 95.232-36.97777707z" fill="#FFFFFF" p-id="3309"></path><path d="M890.19733333 231.53777813z" fill="#FDE977" p-id="3310"></path><path d="M921.14488853 247.46666667zM50.28977813 343.04c14.1084448 21.61777813 38.57066667 26.16888853 62.9191104 21.95911147-13.88088853 7.62311147-29.35466667 13.88088853-40.27733333 25.71377706-39.36711147 105.35822187-18.6595552 223.11822187 26.28266667 323.24266667 84.08177813 192.2844448 318.80533333 310.38577813 522.35377813 251.33511147 178.63111147-43.57688853 323.01511147-200.4764448 352.256-382.06577814 17.06666667-65.64977813 1.36533333-132.66488853-7.50933333-198.0871104l8.76088853-13.19822293c81.1235552 209.92-30.37866667 466.37511147-227.21422187 569.9128896-123.6764448 68.72177813-278.07288853 77.36888853-409.94133333 27.76177707C168.96 906.24 42.2115552 742.51377813 26.96533333 562.176c-9.78488853-74.06933333 6.9404448-147.456 23.3244448-219.136z" fill="#EFA654" p-id="3311"></path><path d="M686.53511147 357.1484448c92.50133333-46.8764448 190.35022187 0 279.7795552 27.98933333 8.87466667 65.42222187 24.576 132.43733333 7.50933333 198.0871104-29.24088853 181.58933333-173.62488853 338.48888853-352.256 382.06577814-203.5484448 59.05066667-438.272-59.05066667-522.35377813-251.33511147 56.5475552-35.72622187 98.98666667 26.96533333 144.27022293 52.224 125.49688853 105.6995552 313.00266667 129.13777813 457.27288853 47.9004448 86.12977813-45.51111147 153.3724448-137.10222187 151.89333334-236.88533333-22.528 48.58311147-37.43288853 103.08266667-77.0275552 141.312C651.15022187 846.27911147 432.3555552 864.93866667 289.33688853 757.76c-18.2044448-25.8275552-35.0435552-52.67911147-57.344-75.32088853 31.28888853-20.93511147 70.8835552-12.17422187 106.0408896-18.88711147 121.40088853-21.16266667 224.4835552-104.78933333 282.28266667-212.1955552 14.67733333-36.864 59.50577813-54.0444448 66.21866667-94.208m150.18666666 47.78666667c-33.45066667 5.80266667-71.68 31.17511147-59.05066666 70.20088853 27.19288853 61.6675552 135.50933333 62.00888853 162.70222186 0.11377813 15.24622187-58.48177813-60.52977813-76.45866667-103.6515552-70.31466666z" fill="#FFD174" p-id="3312"></path><path d="M138.92266667 397.99466667c41.87022187-9.78488853 88.17777813 12.5155552 111.72977813 47.67288853 21.39022187 49.03822187-37.54666667 83.968-79.872 82.37511147-41.64266667 5.00622187-79.75822187-19.79733333-103.65155627-52.11022187-3.8684448-39.7084448 34.92977813-71.79377813 71.79377814-77.93777813z" fill="#EFA654" p-id="3313"></path><path d="M836.72177813 404.93511147c43.12177813-6.144 118.89777813 11.83288853 103.6515552 70.31466666-27.19288853 61.89511147-135.50933333 61.55377813-162.70222186-0.11377813-12.62933333-39.02577813 25.6-64.39822187 59.05066666-70.20088853z" fill="#F29556" p-id="3314"></path><path d="M157.4684448 566.15822187l20.25244373 1.8204448c4.66488853 76.8 46.53511147 148.59377813 111.616 189.78133333 143.01866667 107.17866667 361.81333333 88.51911147 486.28622294-39.25333333 39.59466667-38.22933333 54.4995552-92.72888853 77.0275552-141.312 1.47911147 99.78311147-65.7635552 191.37422187-151.89333334 236.88533333-144.27022187 81.23733333-331.776 57.79911147-457.27288853-47.9004448-44.2595552-58.02666667-92.61511147-122.6524448-86.016-200.02133333z" fill="#690302" p-id="3315"></path></svg>
