<svg t="1609903808077" class="icon" viewBox="0 0 4442 1024" version="1.1" xmlns="http://www.w3.org/2000/svg" p-id="13231" width="48" height="48"><path d="M1430.07602286 81.09566635c-17.69108707-17.69108707-40.43677013-30.32757817-63.18245432-40.43677014-17.69108707-10.1091931-37.90947214-5.05459598-48.01866411 10.10919197L1182.40080495 232.73355491l-10.10919311 12.6364911c-15.16378909 20.21838507-37.90947214 30.32757817-63.18245319 30.32757703h-25.27298217c-70.7643483 2.52729799-139.00139747 37.90947214-181.96546561 96.03733049-35.38217415 45.49136611-50.54596323 103.61922446-50.54596322 159.21978254 0 10.1091931 7.58189397 20.21838507 17.69108706 22.74568306 20.21838507 10.1091931 32.85487616 27.80027904 35.38217415 50.54596324 7.58189397 32.85487616-15.16378909 65.70975118-48.01866525 73.29164629-35.38217415 10.1091931-70.7643483-10.1091931-80.87354025-42.96406813v-2.52729912c-5.05459598-20.21838507 0-37.90947214 12.63649109-53.0732601 7.58189397-7.58189397 10.1091931-20.21838507 10.10919195-30.32757816-5.05459598-73.29164629 15.16378909-149.11059058 60.65515518-207.23844779 55.60055922-73.29164629 141.52869661-118.78301241 235.03872799-118.78301241 17.69108707 0 32.85487616-10.1091931 42.96406812-22.7456842l126.36490752-166.80167651c7.58189397-10.1091931 5.05459598-25.27298105-5.05459597-32.85487616-2.52729799-2.52729799-5.05459598-2.52729799-7.58189513-5.05459712-212.29304377-63.18245319-447.33177173 12.63649109-583.80587119 194.60195783-184.49276473 240.09332395-139.00139747 583.80587122 101.09192644 768.29863595 22.74568306 15.16378909 48.01866525 32.85487616 70.76434719 48.01866411 15.16378909 7.58189397 35.38217415 5.05459598 48.01866525-10.10919197l136.47409945-184.49276473 10.10919312-12.63649109c15.16378909-20.21838507 37.90947214-30.32757817 63.18245319-30.32757703h27.80027903c70.7643483-2.52729799 139.00139747-37.90947214 179.43816877-96.03732936 35.38217415-45.49136611 53.07326123-103.61922446 50.54596322-159.21978368 0-10.1091931-7.58189397-20.21838507-15.16378907-22.74568305-20.21838507-10.1091931-35.38217415-27.80027904-35.38217415-50.54596324-7.58189397-32.85487616 12.63649109-65.70975118 48.01866523-73.29164629 35.38217415-10.1091931 70.7643483 10.1091931 80.87354029 42.96406926 2.52729799 20.21838507 0 37.90947214-15.16378911 53.07326009-7.58189397 7.58189397-10.1091931 20.21838507-10.10919198 30.32757817 7.58189397 73.29164629-15.16378909 146.58329259-58.12785833 207.23844778-55.60055922 73.29164629-141.52869661 118.78301241-235.03872682 118.78301242-17.69108707 0-32.85487616 10.1091931-42.96406812 22.74568419l-126.36490752 166.80167651c-7.58189397 10.1091931-5.05459598 25.27298105 5.05459597 32.85487616 2.52729799 2.52729799 5.05459598 2.52729799 7.58189512 5.05459599 219.87493888 65.70975118 454.91366571-12.63649109 591.38776519-197.12925469 169.32897565-242.62062194 121.3103104-583.80587122-118.78301242-768.29863594z m904.77273545 149.11059058v-12.6364911c0-7.58189397-5.05459598-15.16378909-15.1637891-17.69108708H1887.51698655c-7.58189397 0-15.16378909 5.05459598-17.69108705 15.16378909v27.80028018c0 7.58189397 5.05459598 15.16378909 15.16378909 17.69108707h363.9309323c7.58189397 0 15.16378909 5.05459598 17.6910871 15.16378795v5.05459712c-20.21838507 116.25571442-68.23705031 224.92953486-144.05599347 315.91226823-2.52729799 7.58189397-12.63649109 7.58189397-20.21838505 0l-2.52729912-2.52729913c-58.12785721-75.81894429-98.56462734-161.74708167-118.78301244-255.25711189 0-10.1091931-10.1091931-12.63649109-20.21838505-12.6364911h-25.27298105c-10.1091931 0-17.69108707 10.1091931-15.16378909 20.21838507 22.74568306 106.14652245 68.23705031 207.23844779 136.4740995 293.16658517 7.58189397 7.58189397 7.58189397 17.69108707 0 22.74568306-73.29164629 70.7643483-164.27437966 121.3103104-265.36630499 139.00139748-10.1091931 0-12.63649109 10.1091931-12.63649112 17.69108708v25.27298218c0 10.1091931 10.1091931 17.69108707 20.21838507 17.69108708 113.72841643-20.21838507 219.87493888-73.29164629 303.27577829-156.69248569 5.05459598-7.58189397 15.16378909-7.58189397 22.74568305 0 73.29164629 70.7643483 161.74708167 123.83760953 257.78440989 154.16518656 7.58189397 2.52729799 15.16378909 0 20.21838618-7.58189397v-2.527298l7.58189399-25.27298104c2.52729799-7.58189397-2.52729799-17.69108707-10.1091931-20.21838507-88.45543538-27.80027904-169.32897565-75.81894429-235.03872682-139.00139861-7.58189397-7.58189397-7.58189397-17.69108707 0-22.74568306 98.56462734-118.78301241 159.21978254-260.31170901 169.32897565-411.94959758z m293.16658518-58.12785722h-25.2729822c-7.58189397 0-15.16378909 5.05459598-17.69108708 15.16378909v93.51003136c0 7.58189397-5.05459598 15.16378909-15.16378908 17.69108707h-63.18245319c-7.58189397 0-15.16378909 5.05459598-15.16378909 15.16378795v30.32757817c0 10.1091931 5.05459598 15.16378909 15.16378909 17.69108708h60.65515521c7.58189397 0 15.16378909 5.05459598 15.16378907 15.16378908v131.4195035c0 7.58189397-5.05459598 15.16378909-15.16378907 17.69108708h-63.18245321c-7.58189397 0-15.16378909 5.05459598-15.16378909 15.16378908v32.85487502c0 10.1091931 5.05459598 15.16378909 15.16378909 17.69108708h60.6551552c7.58189397 0 15.16378909 5.05459598 15.16378909 15.16378908v128.89220552c0 27.80027904-10.1091931 73.29164629-80.87354026 75.81894428-7.58189397 0-15.16378909 5.05459598-15.16378908 15.16378908v27.80027904c0 10.1091931 10.1091931 17.69108707 20.21838505 17.69108708 68.23705031-7.58189397 139.00139747-42.96406813 139.0013975-136.47409948v-126.36490752c0-7.58189397 5.05459598-15.16378909 15.16378908-15.16378909h55.60055922c10.1091931 0 15.16378909-7.58189397 15.16378906-15.16378795v-27.80028017c0-7.58189397-5.05459598-15.16378909-15.16378906-15.16378909h-50.54596327c-7.58189397 0-15.16378909-5.05459598-15.16378791-15.16378908V384.37144349c0-7.58189397 5.05459598-15.16378909 15.16378791-15.16378909h55.60055923c7.58189397 0 15.16378909-5.05459598 15.16378909-15.16378795v-27.80028018c0-7.58189397-5.05459598-15.16378909-15.16378909-17.69108707H2663.39751647c-7.58189397 0-15.16378909-5.05459598-15.16378791-15.16378909v-93.51003136c-2.52729799-20.21838507-10.1091931-27.80027904-20.21838507-27.80027904z m139.00139746 672.2613066c0 7.58189397 5.05459598 15.16378909 15.16378908 17.69108708h194.60195669c83.40083826 2.52729799 151.63788857-63.18245319 154.16518658-146.58329259v-404.36770361c0-7.58189397-5.05459598-15.16378909-15.1637891-15.16378794h-331.07605618c-7.58189397 0-15.16378909 5.05459598-15.16378907 15.16378794v2.52729799l-2.527298 530.73261113z m207.23844779-42.96406926H2840.30838723c-10.1091931 0-15.16378909-5.05459598-17.69108706-15.16378795v-184.49276473c0-10.1091931 7.58189397-15.16378909 15.16378908-15.16378908h212.29304378c7.58189397 0 15.16378909 5.05459598 17.69108707 15.16378908v116.25571442c0 48.01866525-42.96406813 85.92813739-93.51003136 83.40083826 2.52729799 0 0 0 0 0z m93.51003136-432.16798265V510.73635101c0 7.58189397-5.05459598 15.16378909-15.16378908 17.69108707H2840.30838723c-10.1091931 0-15.16378909-5.05459598-17.69108706-15.16378909v-141.52869546c0-10.1091931 5.05459598-15.16378909 15.16378908-17.69108708h212.29304378c10.1091931-2.52729799 17.69108707 5.05459598 17.69108707 15.16378795 0-2.52729799 0 0 0 0z m-40.43677016-197.12925469h-169.32897562c-7.58189397 0-15.16378909 5.05459598-15.16378908 15.16378909v30.32757703c0 7.58189397 5.05459598 15.16378909 15.16378908 15.16378908h171.85627363c7.58189397 0 15.16378909-7.58189397 15.1637891-15.16378908v-27.80027904c0-7.58189397-7.58189397-15.16378909-17.69108711-17.69108708 2.52729799 0 0 0 0 0z m649.51562244 27.80027904h-351.29444127c-7.58189397 0-15.16378909 5.05459598-17.69108707 12.6364911v30.32757817c0 7.58189397 5.05459598 15.16378909 15.16378793 17.69108707h353.82174041c7.58189397 0 15.16378909-5.05459598 15.16378907-15.16378908v-27.80028018c2.52729799-7.58189397-2.52729799-15.16378909-10.10919197-17.69108708h-5.0545971z m-149.1105906 303.27577828h245.14791993c7.58189397 0 15.16378909-5.05459598 15.16378909-15.16378908V460.19038777c0-7.58189397-5.05459598-15.16378909-15.16378909-15.16378908h-545.89639906c-7.58189397 0-15.16378909 5.05459598-15.16378797 15.16378908v27.80028018c0 7.58189397 5.05459598 15.16378909 15.16378797 15.16378908h171.85627475c10.1091931 0 17.69108707 7.58189397 17.69108593 15.16378795 0 5.05459598 0 7.58189397-5.05459596 12.63649109l-113.72841643 202.1838518c-2.52729799 2.52729799-5.05459598 7.58189397-7.58189399 12.63648996-10.1091931 27.80027904-5.05459598 58.12785721 12.63648998 80.8735414 17.69108707 27.80027904 48.01866525 42.96406813 80.8735414 40.43677014h305.80307513c12.63649109 0 27.80027904-7.58189397 32.85487615-20.21838507 5.05459598-12.63649109 7.58189397-25.27298105 2.52729799-35.38217415l-70.76434829-144.0559946c-2.52729799-7.58189397-10.1091931-12.63649109-17.6910871-10.10919196-2.52729799 0-5.05459598 2.52729799-5.05459596 2.52729799l-22.74568307 12.63649109c-7.58189397 2.52729799-12.63649109 10.1091931-10.10919309 17.69108594 0 2.52729799 2.52729799 5.05459598 2.527298 7.58189512l42.96406927 80.87354026c7.58189397 10.1091931-2.52729799 22.74568306-17.6910871 22.74568306h-245.14791992c-12.63649109 0-22.74568306-5.05459598-30.32757817-12.63648996-5.05459598-7.58189397-5.05459598-15.16378909-2.52729799-22.74568306 0-2.52729799 0-2.52729799 2.52729799-2.52729912l136.47409948-237.56602482c10.1091931-15.16378909 25.27298105-22.74568306 40.43677013-22.74568306z" fill="#00a0ff" p-id="13232"></path></svg>
